<mxfile host="65bd71144e">
    <diagram id="b9O8rZIneWjr-P9MC5kQ" name="DKP">
        <mxGraphModel dx="527" dy="889" grid="1" gridSize="10" guides="1" tooltips="1" connect="1" arrows="1" fold="1" page="1" pageScale="1" pageWidth="850" pageHeight="1100" math="0" shadow="0">
            <root>
                <mxCell id="0"/>
                <mxCell id="1" parent="0"/>
                <mxCell id="KZ__pssaalwZhVSVFkkO-1" value="" style="rounded=1;whiteSpace=wrap;html=1;fillColor=#FFFFFF;fontColor=#0066ff;strokeColor=#0066ff;arcSize=4;strokeWidth=2;fontFamily=JetBrains Mono;fontSource=https%3A%2F%2Ffonts.googleapis.com%2Fcss%3Ffamily%3DJetBrains%2BMono;dashed=1;" vertex="1" parent="1">
                    <mxGeometry x="40" y="120" width="520" height="280" as="geometry"/>
                </mxCell>
                <mxCell id="KZ__pssaalwZhVSVFkkO-2" value="Namespace" style="text;html=1;strokeColor=none;fillColor=none;align=left;verticalAlign=middle;whiteSpace=wrap;rounded=0;fontColor=#0066ff;strokeWidth=2;fontFamily=JetBrains Mono;fontSource=https%3A%2F%2Ffonts.googleapis.com%2Fcss%3Ffamily%3DJetBrains%2BMono;fontSize=14;" vertex="1" parent="1">
                    <mxGeometry x="60" y="130" width="60" height="20" as="geometry"/>
                </mxCell>
                <mxCell id="HVMJYCdbByCac82Y2Law-2" style="edgeStyle=orthogonalEdgeStyle;html=1;exitX=0.5;exitY=1;exitDx=0;exitDy=0;curved=1;strokeWidth=2;strokeColor=#000000;endArrow=none;endFill=0;" edge="1" parent="1" source="KZ__pssaalwZhVSVFkkO-3" target="HVMJYCdbByCac82Y2Law-1">
                    <mxGeometry relative="1" as="geometry"/>
                </mxCell>
                <mxCell id="KZ__pssaalwZhVSVFkkO-3" value="VM" style="rounded=1;whiteSpace=wrap;html=1;fillColor=#0066ff;fontColor=#FFFFFF;strokeColor=#0066ff;strokeWidth=2;fontFamily=JetBrains Mono;fontSource=https%3A%2F%2Ffonts.googleapis.com%2Fcss%3Ffamily%3DJetBrains%2BMono;fontStyle=1" vertex="1" parent="1">
                    <mxGeometry x="150" y="240" width="80" height="40" as="geometry"/>
                </mxCell>
                <mxCell id="zBuhsIEzXWVct3BQoB1n-1" style="edgeStyle=orthogonalEdgeStyle;curved=1;html=1;exitX=0.5;exitY=1;exitDx=0;exitDy=0;strokeColor=#000000;strokeWidth=2;endArrow=none;endFill=0;" edge="1" parent="1" source="KZ__pssaalwZhVSVFkkO-10" target="HVMJYCdbByCac82Y2Law-1">
                    <mxGeometry relative="1" as="geometry"/>
                </mxCell>
                <mxCell id="KZ__pssaalwZhVSVFkkO-10" value="VM" style="rounded=1;whiteSpace=wrap;html=1;fillColor=#0066ff;fontColor=#FFFFFF;strokeColor=#0066ff;strokeWidth=2;fontFamily=JetBrains Mono;fontSource=https%3A%2F%2Ffonts.googleapis.com%2Fcss%3Ffamily%3DJetBrains%2BMono;fontStyle=1" vertex="1" parent="1">
                    <mxGeometry x="260" y="240" width="80" height="40" as="geometry"/>
                </mxCell>
                <mxCell id="zBuhsIEzXWVct3BQoB1n-2" style="edgeStyle=orthogonalEdgeStyle;curved=1;html=1;exitX=0.5;exitY=1;exitDx=0;exitDy=0;strokeColor=#000000;strokeWidth=2;endArrow=none;endFill=0;" edge="1" parent="1" source="KZ__pssaalwZhVSVFkkO-18">
                    <mxGeometry relative="1" as="geometry">
                        <mxPoint x="300" y="320" as="targetPoint"/>
                    </mxGeometry>
                </mxCell>
                <mxCell id="KZ__pssaalwZhVSVFkkO-18" value="VM" style="rounded=1;whiteSpace=wrap;html=1;fillColor=#0066ff;fontColor=#FFFFFF;strokeColor=#0066ff;strokeWidth=2;fontFamily=JetBrains Mono;fontSource=https%3A%2F%2Ffonts.googleapis.com%2Fcss%3Ffamily%3DJetBrains%2BMono;fontStyle=1" vertex="1" parent="1">
                    <mxGeometry x="370" y="240" width="80" height="40" as="geometry"/>
                </mxCell>
                <mxCell id="KZ__pssaalwZhVSVFkkO-19" value="DKP" style="rounded=1;whiteSpace=wrap;html=1;fillColor=#0066ff;fontColor=#FFFFFF;strokeColor=#0066ff;strokeWidth=2;fontFamily=JetBrains Mono;fontSource=https%3A%2F%2Ffonts.googleapis.com%2Fcss%3Ffamily%3DJetBrains%2BMono;fontStyle=1" vertex="1" parent="1">
                    <mxGeometry x="150" y="180" width="300" height="50" as="geometry"/>
                </mxCell>
                <mxCell id="HVMJYCdbByCac82Y2Law-1" value="" style="html=1;verticalLabelPosition=bottom;align=center;labelBackgroundColor=#ffffff;verticalAlign=top;strokeWidth=2;strokeColor=#0080F0;shadow=0;dashed=0;shape=mxgraph.ios7.icons.cloud;fontSize=14;fillColor=#0066FF;" vertex="1" parent="1">
                    <mxGeometry x="250" y="320" width="100" height="50" as="geometry"/>
                </mxCell>
            </root>
        </mxGraphModel>
    </diagram>
    <diagram id="2xkKjrrqf5umLNx4A2ML" name="PODS and VMS">
        <mxGraphModel dx="767" dy="889" grid="1" gridSize="10" guides="1" tooltips="1" connect="1" arrows="1" fold="1" page="1" pageScale="1" pageWidth="690" pageHeight="980" math="0" shadow="0">
            <root>
                <mxCell id="0"/>
                <mxCell id="1" parent="0"/>
                <mxCell id="S7Z1PFq_hIaQKoyHMAMb-1" value="" style="rounded=1;whiteSpace=wrap;html=1;fillColor=#FFFFFF;fontColor=#0066ff;strokeColor=#0066ff;arcSize=4;strokeWidth=2;fontFamily=JetBrains Mono;fontSource=https%3A%2F%2Ffonts.googleapis.com%2Fcss%3Ffamily%3DJetBrains%2BMono;dashed=1;" parent="1" vertex="1">
                    <mxGeometry x="40" y="120" width="520" height="280" as="geometry"/>
                </mxCell>
                <mxCell id="S7Z1PFq_hIaQKoyHMAMb-2" value="Namespace" style="text;html=1;strokeColor=none;fillColor=none;align=left;verticalAlign=middle;whiteSpace=wrap;rounded=0;fontColor=#0066ff;strokeWidth=2;fontFamily=JetBrains Mono;fontSource=https%3A%2F%2Ffonts.googleapis.com%2Fcss%3Ffamily%3DJetBrains%2BMono;fontSize=14;" parent="1" vertex="1">
                    <mxGeometry x="60" y="130" width="60" height="20" as="geometry"/>
                </mxCell>
                <mxCell id="S7Z1PFq_hIaQKoyHMAMb-3" value="VM" style="rounded=1;whiteSpace=wrap;html=1;fillColor=#0066ff;fontColor=#FFFFFF;strokeColor=#0066ff;strokeWidth=2;fontFamily=JetBrains Mono;fontSource=https%3A%2F%2Ffonts.googleapis.com%2Fcss%3Ffamily%3DJetBrains%2BMono;fontStyle=1" parent="1" vertex="1">
                    <mxGeometry x="70" y="200" width="80" height="40" as="geometry"/>
                </mxCell>
                <mxCell id="S7Z1PFq_hIaQKoyHMAMb-10" value="VM" style="rounded=1;whiteSpace=wrap;html=1;fillColor=#0066ff;fontColor=#FFFFFF;strokeColor=#0066ff;strokeWidth=2;fontFamily=JetBrains Mono;fontSource=https%3A%2F%2Ffonts.googleapis.com%2Fcss%3Ffamily%3DJetBrains%2BMono;fontStyle=1" parent="1" vertex="1">
                    <mxGeometry x="450" y="190" width="80" height="40" as="geometry"/>
                </mxCell>
                <mxCell id="S7Z1PFq_hIaQKoyHMAMb-15" style="edgeStyle=entityRelationEdgeStyle;html=1;strokeWidth=2;fontSize=14;endArrow=none;endFill=0;strokeColor=#212121;" parent="1" source="S7Z1PFq_hIaQKoyHMAMb-17" target="S7Z1PFq_hIaQKoyHMAMb-3" edge="1">
                    <mxGeometry relative="1" as="geometry"/>
                </mxCell>
                <mxCell id="S7Z1PFq_hIaQKoyHMAMb-16" style="edgeStyle=entityRelationEdgeStyle;html=1;strokeWidth=2;fontSize=14;endArrow=none;endFill=0;strokeColor=#212121;" parent="1" source="S7Z1PFq_hIaQKoyHMAMb-17" target="S7Z1PFq_hIaQKoyHMAMb-10" edge="1">
                    <mxGeometry relative="1" as="geometry"/>
                </mxCell>
                <mxCell id="S7Z1PFq_hIaQKoyHMAMb-20" style="edgeStyle=entityRelationEdgeStyle;html=1;strokeColor=#212121;strokeWidth=2;fontSize=14;endArrow=none;endFill=0;" parent="1" source="S7Z1PFq_hIaQKoyHMAMb-17" target="S7Z1PFq_hIaQKoyHMAMb-18" edge="1">
                    <mxGeometry relative="1" as="geometry"/>
                </mxCell>
                <mxCell id="S7Z1PFq_hIaQKoyHMAMb-17" value="" style="html=1;verticalLabelPosition=bottom;align=center;labelBackgroundColor=#ffffff;verticalAlign=top;strokeWidth=2;strokeColor=#0080F0;shadow=0;dashed=0;shape=mxgraph.ios7.icons.cloud;fontSize=14;fillColor=#0066FF;" parent="1" vertex="1">
                    <mxGeometry x="240" y="230" width="100" height="50" as="geometry"/>
                </mxCell>
                <mxCell id="S7Z1PFq_hIaQKoyHMAMb-18" value="POD" style="rounded=1;whiteSpace=wrap;html=1;fillColor=#0066ff;fontColor=#FFFFFF;strokeColor=#0066ff;strokeWidth=2;fontFamily=JetBrains Mono;fontSource=https%3A%2F%2Ffonts.googleapis.com%2Fcss%3Ffamily%3DJetBrains%2BMono;fontStyle=1" parent="1" vertex="1">
                    <mxGeometry x="240" y="150" width="80" height="40" as="geometry"/>
                </mxCell>
                <mxCell id="S7Z1PFq_hIaQKoyHMAMb-23" style="edgeStyle=entityRelationEdgeStyle;html=1;strokeColor=#212121;strokeWidth=2;fontSize=14;endArrow=none;endFill=0;" parent="1" source="S7Z1PFq_hIaQKoyHMAMb-19" target="S7Z1PFq_hIaQKoyHMAMb-17" edge="1">
                    <mxGeometry relative="1" as="geometry"/>
                </mxCell>
                <mxCell id="S7Z1PFq_hIaQKoyHMAMb-19" value="POD" style="rounded=1;whiteSpace=wrap;html=1;fillColor=#0066ff;fontColor=#FFFFFF;strokeColor=#0066ff;strokeWidth=2;fontFamily=JetBrains Mono;fontSource=https%3A%2F%2Ffonts.googleapis.com%2Fcss%3Ffamily%3DJetBrains%2BMono;fontStyle=1" parent="1" vertex="1">
                    <mxGeometry x="450" y="320" width="80" height="40" as="geometry"/>
                </mxCell>
                <mxCell id="S7Z1PFq_hIaQKoyHMAMb-22" style="edgeStyle=entityRelationEdgeStyle;html=1;strokeColor=#212121;strokeWidth=2;fontSize=14;endArrow=none;endFill=0;" parent="1" source="S7Z1PFq_hIaQKoyHMAMb-21" target="S7Z1PFq_hIaQKoyHMAMb-17" edge="1">
                    <mxGeometry relative="1" as="geometry"/>
                </mxCell>
                <mxCell id="S7Z1PFq_hIaQKoyHMAMb-21" value="POD" style="rounded=1;whiteSpace=wrap;html=1;fillColor=#0066ff;fontColor=#FFFFFF;strokeColor=#0066ff;strokeWidth=2;fontFamily=JetBrains Mono;fontSource=https%3A%2F%2Ffonts.googleapis.com%2Fcss%3Ffamily%3DJetBrains%2BMono;fontStyle=1" parent="1" vertex="1">
                    <mxGeometry x="80" y="320" width="80" height="40" as="geometry"/>
                </mxCell>
            </root>
        </mxGraphModel>
    </diagram>
    <diagram id="fnCJLFpcN7sqBl63v5Wc" name="VMS">
        <mxGraphModel dx="527" dy="889" grid="1" gridSize="10" guides="1" tooltips="1" connect="1" arrows="1" fold="1" page="1" pageScale="1" pageWidth="690" pageHeight="980" math="0" shadow="0">
            <root>
                <mxCell id="0"/>
                <mxCell id="1" parent="0"/>
                <mxCell id="2" value="" style="rounded=1;whiteSpace=wrap;html=1;fillColor=#FFFFFF;fontColor=#0066ff;strokeColor=#0066ff;arcSize=4;strokeWidth=2;fontFamily=JetBrains Mono;fontSource=https%3A%2F%2Ffonts.googleapis.com%2Fcss%3Ffamily%3DJetBrains%2BMono;dashed=1;" parent="1" vertex="1">
                    <mxGeometry x="40" y="120" width="520" height="280" as="geometry"/>
                </mxCell>
                <mxCell id="5" value="Namespace" style="text;html=1;strokeColor=none;fillColor=none;align=left;verticalAlign=middle;whiteSpace=wrap;rounded=0;fontColor=#0066ff;strokeWidth=2;fontFamily=JetBrains Mono;fontSource=https%3A%2F%2Ffonts.googleapis.com%2Fcss%3Ffamily%3DJetBrains%2BMono;fontSize=14;" parent="1" vertex="1">
                    <mxGeometry x="60" y="130" width="60" height="20" as="geometry"/>
                </mxCell>
                <mxCell id="27" value="VM" style="rounded=1;whiteSpace=wrap;html=1;fillColor=#0066ff;fontColor=#FFFFFF;strokeColor=#0066ff;strokeWidth=2;fontFamily=JetBrains Mono;fontSource=https%3A%2F%2Ffonts.googleapis.com%2Fcss%3Ffamily%3DJetBrains%2BMono;fontStyle=1" parent="1" vertex="1">
                    <mxGeometry x="120" y="200" width="80" height="40" as="geometry"/>
                </mxCell>
                <mxCell id="31" style="edgeStyle=orthogonalEdgeStyle;html=1;fontSize=14;curved=1;endArrow=none;endFill=0;strokeWidth=2;strokeColor=#212121;" parent="1" source="28" target="27" edge="1">
                    <mxGeometry relative="1" as="geometry"/>
                </mxCell>
                <mxCell id="28" value="" style="sketch=0;pointerEvents=1;shadow=0;dashed=0;html=1;strokeColor=none;fillColor=#0066FF;labelPosition=center;verticalLabelPosition=bottom;verticalAlign=top;outlineConnect=0;align=center;shape=mxgraph.office.devices.hard_disk;fontSize=14;" parent="1" vertex="1">
                    <mxGeometry x="80" y="280" width="40" height="54" as="geometry"/>
                </mxCell>
                <mxCell id="32" style="edgeStyle=orthogonalEdgeStyle;curved=1;html=1;strokeWidth=2;fontSize=14;endArrow=none;endFill=0;strokeColor=#212121;" parent="1" source="29" target="27" edge="1">
                    <mxGeometry relative="1" as="geometry"/>
                </mxCell>
                <mxCell id="29" value="" style="sketch=0;pointerEvents=1;shadow=0;dashed=0;html=1;strokeColor=none;fillColor=#0066FF;labelPosition=center;verticalLabelPosition=bottom;verticalAlign=top;outlineConnect=0;align=center;shape=mxgraph.office.devices.hard_disk;fontSize=14;" parent="1" vertex="1">
                    <mxGeometry x="140" y="300" width="40" height="54" as="geometry"/>
                </mxCell>
                <mxCell id="33" style="edgeStyle=orthogonalEdgeStyle;curved=1;html=1;strokeWidth=2;fontSize=14;endArrow=none;endFill=0;strokeColor=#212121;" parent="1" source="30" target="27" edge="1">
                    <mxGeometry relative="1" as="geometry"/>
                </mxCell>
                <mxCell id="30" value="" style="sketch=0;pointerEvents=1;shadow=0;dashed=0;html=1;strokeColor=none;fillColor=#0066FF;labelPosition=center;verticalLabelPosition=bottom;verticalAlign=top;outlineConnect=0;align=center;shape=mxgraph.office.devices.hard_disk;fontSize=14;" parent="1" vertex="1">
                    <mxGeometry x="200" y="280" width="40" height="54" as="geometry"/>
                </mxCell>
                <mxCell id="34" value="VM" style="rounded=1;whiteSpace=wrap;html=1;fillColor=#0066ff;fontColor=#FFFFFF;strokeColor=#0066ff;strokeWidth=2;fontFamily=JetBrains Mono;fontSource=https%3A%2F%2Ffonts.googleapis.com%2Fcss%3Ffamily%3DJetBrains%2BMono;fontStyle=1" parent="1" vertex="1">
                    <mxGeometry x="440" y="200" width="80" height="40" as="geometry"/>
                </mxCell>
                <mxCell id="38" style="edgeStyle=orthogonalEdgeStyle;curved=1;html=1;entryX=0.5;entryY=1;entryDx=0;entryDy=0;strokeWidth=2;fontSize=14;endArrow=none;endFill=0;strokeColor=#212121;" parent="1" source="36" target="34" edge="1">
                    <mxGeometry relative="1" as="geometry"/>
                </mxCell>
                <mxCell id="36" value="" style="sketch=0;pointerEvents=1;shadow=0;dashed=0;html=1;strokeColor=none;fillColor=#0066FF;labelPosition=center;verticalLabelPosition=bottom;verticalAlign=top;outlineConnect=0;align=center;shape=mxgraph.office.devices.hard_disk;fontSize=14;" parent="1" vertex="1">
                    <mxGeometry x="460" y="300" width="40" height="54" as="geometry"/>
                </mxCell>
                <mxCell id="41" style="edgeStyle=orthogonalEdgeStyle;curved=1;html=1;strokeWidth=2;fontSize=14;endArrow=none;endFill=0;strokeColor=#212121;" parent="1" source="40" target="34" edge="1">
                    <mxGeometry relative="1" as="geometry"/>
                </mxCell>
                <mxCell id="40" value="" style="sketch=0;pointerEvents=1;shadow=0;dashed=0;html=1;strokeColor=none;fillColor=#0066FF;labelPosition=center;verticalLabelPosition=bottom;verticalAlign=top;outlineConnect=0;align=center;shape=mxgraph.office.devices.cd_dvd;fontSize=14;" parent="1" vertex="1">
                    <mxGeometry x="391" y="280" width="49" height="49" as="geometry"/>
                </mxCell>
                <mxCell id="43" style="edgeStyle=orthogonalEdgeStyle;curved=1;html=1;strokeWidth=2;fontSize=14;endArrow=none;endFill=0;strokeColor=#212121;" parent="1" source="42" target="27" edge="1">
                    <mxGeometry relative="1" as="geometry"/>
                </mxCell>
                <mxCell id="44" style="edgeStyle=orthogonalEdgeStyle;curved=1;html=1;strokeWidth=2;fontSize=14;endArrow=none;endFill=0;strokeColor=#212121;" parent="1" source="42" target="34" edge="1">
                    <mxGeometry relative="1" as="geometry"/>
                </mxCell>
                <mxCell id="42" value="" style="html=1;verticalLabelPosition=bottom;align=center;labelBackgroundColor=#ffffff;verticalAlign=top;strokeWidth=2;strokeColor=#0080F0;shadow=0;dashed=0;shape=mxgraph.ios7.icons.cloud;fontSize=14;fillColor=#0066FF;" parent="1" vertex="1">
                    <mxGeometry x="260" y="195" width="100" height="50" as="geometry"/>
                </mxCell>
            </root>
        </mxGraphModel>
    </diagram>
</mxfile>
